<?xml version="1.0" encoding="iso-8859-1"?>
<!-- Generator: Adobe Illustrator 19.0.0, SVG Export Plug-In . SVG Version: 6.00 Build 0)  -->
<svg version="1.1" id="Layer_1" xmlns="http://www.w3.org/2000/svg" xmlns:xlink="http://www.w3.org/1999/xlink" x="0px" y="0px"
	 viewBox="0 0 512.582 512.582" style="enable-background:new 0 0 512.582 512.582;" xml:space="preserve">
<g>
	<g>
		<path d="M477.382,0H35.2C15.418,0,0.291,15.127,0.291,34.909v302.545c0,19.782,15.127,34.909,34.909,34.909h197.818
			c6.982,0,11.636-4.655,11.636-11.636s-4.655-11.636-11.636-11.636H35.2c-6.982,0-11.636-4.655-11.636-11.636V34.909
			c0-6.982,4.655-11.636,11.636-11.636h442.182c6.982,0,11.636,4.655,11.636,11.636v302.545c0,6.982-4.655,11.636-11.636,11.636
			h-18.618l3.491-3.491c3.491-4.655,3.491-11.636,0-15.127l-13.964-16.291l4.655-20.945c1.164-5.818-2.327-11.636-8.146-13.964
			l-19.782-6.982l-5.818-18.618c-2.327-5.818-8.146-9.309-13.964-8.145l-20.945,4.655l-15.127-13.964
			c-4.655-3.491-11.636-3.491-15.127,0l-16.291,13.964l-20.945-4.655c-5.818-1.164-11.636,2.327-13.964,8.145l-6.982,19.782
			l-18.618,5.818c-5.818,2.327-9.309,8.146-8.145,13.964l4.655,20.945l-13.964,15.127c-3.491,4.655-3.491,11.636,0,15.127
			l13.964,15.127l-4.655,20.945c-1.164,5.818,2.327,11.636,8.145,13.964l19.782,6.982L304,421.236
			c2.327,5.818,8.145,9.309,13.964,8.145l20.945-4.655l15.127,13.964c4.655,3.491,11.636,3.491,15.127,0l15.127-13.964l11.636,2.327
			v53.527l-30.255-15.127c-3.491-1.164-6.982-1.164-10.473,0l-29.091,16.291v-27.927c0-6.982-4.655-11.636-11.636-11.636
			s-11.636,4.655-11.636,11.636v46.545c0,3.491,2.327,8.145,5.818,10.473c3.491,2.327,8.145,2.327,11.636,0l41.891-20.945
			l41.891,20.945c0,1.164,1.164,1.164,3.491,1.164c2.327,0,4.655-1.164,5.818-1.164c3.491-2.327,5.818-5.818,5.818-10.473v-82.618
			c0-5.818-3.491-10.473-9.309-11.636l-26.764-5.818c-3.491-1.164-6.982,0-10.473,2.327l-12.8,11.636l-12.8-11.636
			c-2.327-2.327-6.982-3.491-10.473-2.327l-16.291,3.491l-4.655-16.291c-1.164-3.491-3.491-5.818-6.982-6.982l-16.291-4.655
			l3.491-16.291c1.164-3.491,0-6.982-2.327-10.473l-11.636-12.8l11.636-12.8c2.327-2.327,3.491-6.982,2.327-10.473l-3.491-16.291
			l16.291-4.655c3.491-1.164,5.818-3.491,6.982-6.982l4.655-16.291l16.291,3.491c3.491,1.164,6.982,0,10.473-2.327l12.8-11.636
			l12.8,11.636c2.327,2.327,6.982,3.491,10.473,2.327l16.291-3.491l4.655,16.291c1.164,3.491,3.491,5.818,6.982,6.982l16.291,4.655
			l-3.491,16.291c-1.164,3.491,0,6.982,2.327,10.473l11.636,12.8l-11.636,12.8c-2.327,2.327-3.491,6.982-2.327,10.473l5.818,26.764
			c1.164,5.818,6.982,10.473,13.964,9.309c5.818-1.164,10.473-6.982,9.309-13.964l-2.327-9.309h26.764
			c19.782,0,34.909-15.127,34.909-34.909V34.909C512.291,15.127,497.164,0,477.382,0z"/>
	</g>
</g>
<g>
	<g>
		<path d="M361.018,290.909c-25.6,0-46.545,20.945-46.545,46.545c0,25.6,20.945,46.545,46.545,46.545
			c25.6,0,46.545-20.945,46.545-46.545C407.564,311.855,386.618,290.909,361.018,290.909z M361.018,360.727
			c-12.8,0-23.273-10.473-23.273-23.273c0-12.8,10.473-23.273,23.273-23.273s23.273,10.473,23.273,23.273
			C384.291,350.255,373.818,360.727,361.018,360.727z"/>
	</g>
</g>
<g>
	<g>
		<path d="M326.109,46.545H186.473c-6.982,0-11.636,4.655-11.636,11.636s4.655,11.636,11.636,11.636h139.636
			c6.982,0,11.636-4.655,11.636-11.636S333.091,46.545,326.109,46.545z"/>
	</g>
</g>
<g>
	<g>
		<path d="M256.291,162.909H81.745c-6.982,0-11.636,4.655-11.636,11.636s4.655,11.636,11.636,11.636h174.545
			c6.982,0,11.636-4.655,11.636-11.636S263.273,162.909,256.291,162.909z"/>
	</g>
</g>
<g>
	<g>
		<path d="M209.745,209.455h-128c-6.982,0-11.636,4.655-11.636,11.636c0,6.982,4.655,11.636,11.636,11.636h128
			c6.982,0,11.636-4.655,11.636-11.636C221.382,214.109,216.727,209.455,209.745,209.455z"/>
	</g>
</g>
<g>
	<g>
		<path d="M291.2,93.091h-69.818c-6.982,0-11.636,4.655-11.636,11.636s4.655,11.636,11.636,11.636H291.2
			c6.982,0,11.636-4.655,11.636-11.636S298.182,93.091,291.2,93.091z"/>
	</g>
</g>
<g>
	<g>
		<path d="M372.655,162.909h-69.818c-6.982,0-11.636,4.655-11.636,11.636s4.655,11.636,11.636,11.636h69.818
			c6.982,0,11.636-4.655,11.636-11.636S379.636,162.909,372.655,162.909z"/>
	</g>
</g>
<g>
	<g>
		<path d="M174.836,290.909h-25.6c-3.491,0-5.818-1.164-8.145-3.491l-11.636-11.636c-13.964-13.964-36.073-13.964-48.873,0
			l-6.982,6.982c-4.655,4.655-4.655,11.636,0,16.291s11.636,4.655,16.291,0l6.982-6.982c4.655-4.655,11.636-4.655,16.291,0
			l11.636,11.636c6.982,6.982,15.127,10.473,24.436,10.473h25.6c6.982,0,11.636-4.655,11.636-11.636
			S181.818,290.909,174.836,290.909z"/>
	</g>
</g>
<g>
	<g>
		<path d="M291.2,209.455h-34.909c-6.982,0-11.636,4.655-11.636,11.636c0,6.982,4.655,11.636,11.636,11.636H291.2
			c6.982,0,11.636-4.655,11.636-11.636C302.836,214.109,298.182,209.455,291.2,209.455z"/>
	</g>
</g>
<g>
</g>
<g>
</g>
<g>
</g>
<g>
</g>
<g>
</g>
<g>
</g>
<g>
</g>
<g>
</g>
<g>
</g>
<g>
</g>
<g>
</g>
<g>
</g>
<g>
</g>
<g>
</g>
<g>
</g>
</svg>
