<?xml version="1.0" encoding="UTF-8" standalone="no"?>
<svg
   xmlns:dc="http://purl.org/dc/elements/1.1/"
   xmlns:cc="http://creativecommons.org/ns#"
   xmlns:rdf="http://www.w3.org/1999/02/22-rdf-syntax-ns#"
   xmlns:svg="http://www.w3.org/2000/svg"
   xmlns="http://www.w3.org/2000/svg"
   xmlns:sodipodi="http://sodipodi.sourceforge.net/DTD/sodipodi-0.dtd"
   xmlns:inkscape="http://www.inkscape.org/namespaces/inkscape"
   inkscape:version="1.0 (4035a4fb49, 2020-05-01)"
   sodipodi:docname="zipkin.svg"
   xml:space="preserve"
   viewBox="0 0 150 150"
   height="150"
   width="150"
   id="Layer_1"
   version="1.1"><metadata
   id="metadata286"><rdf:RDF><cc:Work
       rdf:about=""><dc:format>image/svg+xml</dc:format><dc:type
         rdf:resource="http://purl.org/dc/dcmitype/StillImage" /><dc:title></dc:title></cc:Work></rdf:RDF></metadata><defs
   id="defs284" /><sodipodi:namedview
   inkscape:current-layer="Layer_1"
   inkscape:window-maximized="1"
   inkscape:window-y="0"
   inkscape:window-x="0"
   inkscape:cy="60.928084"
   inkscape:cx="-67.721173"
   inkscape:zoom="1.6240262"
   showgrid="false"
   id="namedview282"
   inkscape:window-height="704"
   inkscape:window-width="1366"
   inkscape:pageshadow="2"
   inkscape:pageopacity="0"
   guidetolerance="10"
   gridtolerance="10"
   objecttolerance="10"
   borderopacity="1"
   bordercolor="#666666"
   pagecolor="#ffffff" /> <style
   id="style275"
   type="text/css"> .st0{fill:#FE7139;} .st1{fill:#FFFFFF;} </style>  <g
   transform="translate(16.144385,8.872952)"
   id="g300"><g
     id="g289"><path
       id="path277"
       d="M 52,4.6 9.6,29.2 c -4.9,2.9 -8,8.1 -8,13.8 v 49 c 0,5.7 3,11 8,13.8 L 52,130.4 c 4.9,2.9 11,2.9 16,0 l 42.5,-24.5 c 4.9,-2.9 8,-8.1 8,-13.8 V 43 c 0,-5.7 -3,-11 -8,-13.8 L 68,4.6 C 63,1.8 57,1.8 52,4.6 Z"
       class="st0" /></g><polygon
     class="st1"
     points="27.4,86 57.8,100.8 57.8,62.3 47.7,80 54.3,83.4 54.3,88.4 41,82.2 60,51.2 79,82.2 65.7,88.4 65.7,83.4 72.3,80 62.2,62.3 62.2,100.8 92.6,86 60,33.1 "
     id="polygon279" /></g> </svg>
