<?xml version="1.0" encoding="UTF-8" standalone="no"?>
<svg
   xmlns:dc="http://purl.org/dc/elements/1.1/"
   xmlns:cc="http://creativecommons.org/ns#"
   xmlns:rdf="http://www.w3.org/1999/02/22-rdf-syntax-ns#"
   xmlns:svg="http://www.w3.org/2000/svg"
   xmlns="http://www.w3.org/2000/svg"
   xmlns:sodipodi="http://sodipodi.sourceforge.net/DTD/sodipodi-0.dtd"
   xmlns:inkscape="http://www.inkscape.org/namespaces/inkscape"
   inkscape:version="1.0 (4035a4fb49, 2020-05-01)"
   sodipodi:docname="mariadb.svg"
   id="svg60"
   version="1.1"
   viewBox="0 0 28.35747 18.590911"
   width="70.893677"
   height="46.47728">
  <metadata
     id="metadata66">
    <rdf:RDF>
      <cc:Work
         rdf:about="">
        <dc:format>image/svg+xml</dc:format>
        <dc:type
           rdf:resource="http://purl.org/dc/dcmitype/StillImage" />
        <dc:title>file_type_mariadb</dc:title>
      </cc:Work>
    </rdf:RDF>
  </metadata>
  <defs
     id="defs64" />
  <sodipodi:namedview
     inkscape:current-layer="svg60"
     inkscape:window-maximized="1"
     inkscape:window-y="0"
     inkscape:window-x="0"
     inkscape:cy="13.017949"
     inkscape:cx="-0.98892508"
     inkscape:zoom="15.84375"
     scale-x="0.4"
     fit-margin-bottom="0"
     fit-margin-right="0"
     fit-margin-left="0.9"
     fit-margin-top="0"
     showgrid="false"
     id="namedview62"
     inkscape:window-height="704"
     inkscape:window-width="1366"
     inkscape:pageshadow="2"
     inkscape:pageopacity="0"
     guidetolerance="10"
     gridtolerance="10"
     objecttolerance="10"
     borderopacity="1"
     bordercolor="#666666"
     pagecolor="#ffffff" />
  <title
     id="title44">file_type_mariadb</title>
  <path
     id="path46"
     style="fill:#002b64"
     d="m 27.741,0 c -0.433,0.014 -0.3,0.139 -1.231,0.369 a 18.911,18.911 0 0 0 -3.114,0.588 c -3.035,1.273 -3.644,5.624 -6.4,7.182 -2.063,1.165 -4.143,1.258 -6.014,1.844 a 11,11 0 0 0 -3.688,2.136 c -0.865,0.745 -0.887,1.4 -1.791,2.336 -0.966,1 -3.841,0.017 -5.14300001,1.547 0.42,0.424 0.6,0.543 1.43100001,0.433 C 1.62,16.76 0.61099999,17.035 0.80799999,17.51 1.016,18.01 3.456,18.353 5.674,17.01 6.707,16.386 7.53,15.487 9.139,15.273 a 26.674,26.674 0 0 1 6.89,0.526 10.738,10.738 0 0 1 -1.65,2.623 c -0.178,0.192 0.357,0.213 0.968,0.1 a 9.644,9.644 0 0 0 2.72,-0.973 c 1.019,-0.593 1.173,-2.114 2.423,-2.443 a 2.8,2.8 0 0 0 3.766,0.467 c -1.031,-0.292 -1.316,-2.487 -0.968,-3.455 0.33,-0.916 0.656,-2.381 0.988,-3.591 0.357,-1.3 0.488,-2.939 0.92,-3.6 a 8.517,8.517 0 0 1 1.99,-1.9 2.792,2.792 0 0 0 1.169,-2.391 C 28.349,0.222 28.135,-0.009 27.741,0.004 Z" />
  <path
     id="path48"
     style="fill:#c49a6c"
     d="m 1.255,17.422 a 6.216,6.216 0 0 0 3.809,-0.55 34.319,34.319 0 0 1 3.4,-1.842 c 1.872,-0.6 3.924,0 5.925,0.121 a 8.616,8.616 0 0 0 1.449,-0.022 c 0.745,-0.458 0.73,-2.172 1.455,-2.329 a 8.263,8.263 0 0 1 -2.038,5.24 5.835,5.835 0 0 0 4.351,-3.319 12.259,12.259 0 0 0 0.7,-1.63 c 0.311,0.239 0.135,0.965 0.291,1.358 1.5,-0.834 2.353,-2.736 2.921,-4.66 0.656,-2.227 0.925,-4.481 1.349,-5.14 A 5.608,5.608 0 0 1 26.497,3.2 2.625,2.625 0 0 0 27.862,1.35 C 27.162,1.285 26.996,1.122 26.892,0.768 A 2.1,2.1 0 0 1 25.85,1.02 c -0.317,0.01 -0.666,0 -1.092,0.039 -3.523,0.362 -3.971,4.245 -6.229,6.447 a 5.3,5.3 0 0 1 -0.53,0.45 11.107,11.107 0 0 1 -2.653,1.352 C 13.902,9.86 12.529,9.899 11.174,10.375 A 12.5,12.5 0 0 0 8.355,11.79 c -0.2,0.14 -0.4,0.283 -0.574,0.428 a 5.62,5.62 0 0 0 -1.1,1.275 8.473,8.473 0 0 1 -1.079,1.389 c -0.749,0.735 -3.546,0.214 -4.531,0.9 A 0.8,0.8 0 0 0 0.81499999,16.058 C 1.352,16.302 1.715,16.152 2.329,16.221 2.41,16.808 1.054,17.156 1.254,17.426 Z" />
  <path
     id="path50"
     style="fill:#002b64"
     d="M 23.586,2.516 A 0.832,0.832 0 0 0 24.944,1.74 C 24.169,1.675 23.72,1.938 23.586,2.516 Z" />
  <path
     id="path52"
     style="fill:#002b64"
     d="m 27.063,1.509 a 2.594,2.594 0 0 0 -0.387,1.345 c 0,0.122 -0.092,0.2 -0.094,0.017 a 2.649,2.649 0 0 1 0.385,-1.385 c 0.088,-0.16 0.145,-0.094 0.096,0.023 z" />
  <path
     id="path54"
     style="fill:#002b64"
     d="m 26.929,1.4 a 3.2,3.2 0 0 0 -0.6,1.455 c -0.012,0.121 -0.11,0.2 -0.095,0.009 a 3.263,3.263 0 0 1 0.6,-1.495 C 26.94,1.221 26.989,1.292 26.929,1.4 Z" />
  <path
     id="path56"
     style="fill:#002b64"
     d="m 26.808,1.265 a 3.785,3.785 0 0 0 -0.88,1.531 c -0.022,0.119 -0.126,0.186 -0.1,0 a 3.928,3.928 0 0 1 0.885,-1.57 c 0.121,-0.142 0.163,-0.067 0.095,0.039 z" />
  <path
     id="path58"
     style="fill:#002b64"
     d="M 26.699,1.11 A 5.223,5.223 0 0 0 25.578,2.75 C 25.539,2.865 25.427,2.917 25.483,2.738 A 5.193,5.193 0 0 1 26.615,1.06 c 0.135,-0.126 0.167,-0.045 0.084,0.051 z" />
</svg>
