<?xml version="1.0" encoding="UTF-8" standalone="no"?>
<svg
   xmlns:dc="http://purl.org/dc/elements/1.1/"
   xmlns:cc="http://creativecommons.org/ns#"
   xmlns:rdf="http://www.w3.org/1999/02/22-rdf-syntax-ns#"
   xmlns:svg="http://www.w3.org/2000/svg"
   xmlns="http://www.w3.org/2000/svg"
   xmlns:sodipodi="http://sodipodi.sourceforge.net/DTD/sodipodi-0.dtd"
   xmlns:inkscape="http://www.inkscape.org/namespaces/inkscape"
   sodipodi:docname="events.svg"
   inkscape:version="1.0 (4035a4fb49, 2020-05-01)"
   id="svg266"
   version="1.1"
   viewBox="0 0 161.05531 120.80948"
   height="120.80948mm"
   width="161.05531mm">
  <defs
     id="defs260" />
  <sodipodi:namedview
     fit-margin-bottom="0"
     fit-margin-right="0"
     fit-margin-left="0"
     fit-margin-top="0"
     inkscape:window-maximized="1"
     inkscape:window-y="0"
     inkscape:window-x="0"
     inkscape:window-height="704"
     inkscape:window-width="1366"
     showgrid="false"
     inkscape:document-rotation="0"
     inkscape:current-layer="layer1"
     inkscape:document-units="mm"
     inkscape:cy="380.63498"
     inkscape:cx="351.94628"
     inkscape:zoom="0.35"
     inkscape:pageshadow="2"
     inkscape:pageopacity="0.0"
     borderopacity="1.0"
     bordercolor="#666666"
     pagecolor="#ffffff"
     id="base" />
  <metadata
     id="metadata263">
    <rdf:RDF>
      <cc:Work
         rdf:about="">
        <dc:format>image/svg+xml</dc:format>
        <dc:type
           rdf:resource="http://purl.org/dc/dcmitype/StillImage" />
        <dc:title></dc:title>
      </cc:Work>
    </rdf:RDF>
  </metadata>
  <g
     transform="translate(-12.714212,-47.456994)"
     id="layer1"
     inkscape:groupmode="layer"
     inkscape:label="Layer 1">
    <g
       transform="matrix(1.0736474,0,0,1.1954456,12.18149,-1092.4575)"
       id="g4449">
      <path
         id="path2844"
         d="m 104.7944,978.86598 c 0,13.52888 -13.79395,24.49622 -30.80965,24.49622 -17.01571,0 -30.80966,-10.96734 -30.80966,-24.49622 0,-13.52887 13.79395,-24.4962 30.80966,-24.4962 17.0157,0 30.80965,10.96733 30.80965,24.4962 z"
         style="fill:#729fcf;fill-opacity:1;fill-rule:nonzero;stroke:none" />
      <path
         id="path2844-3"
         d="m 103.42412,979.70978 c 0,13.43025 -13.23431,24.31762 -29.55965,24.31762 -16.32535,0 -29.55966,-10.88737 -29.55966,-24.31762 0,-13.43026 13.23431,-24.31763 29.55966,-24.31763 16.32534,0 29.55965,10.88737 29.55965,24.31763 z"
         style="fill:#eeeeec;fill-opacity:1;fill-rule:nonzero;stroke:none" />
      <path
         id="path2844-9"
         d="m 106.05711,1009.9282 c 0,12.2736 -11.19345,22.2233 -25.00127,22.2233 -13.80783,0 -25.00128,-9.9497 -25.00128,-22.2233 0,-12.27363 11.19345,-22.22337 25.00128,-22.22337 13.80782,0 25.00127,9.94974 25.00127,22.22337 z"
         style="fill:#eeeeec;fill-opacity:1;fill-rule:nonzero;stroke:none" />
      <path
         id="path2844-5"
         d="m 125.75508,992.7556 c 0,12.2736 -11.19345,22.2234 -25.00127,22.2234 -13.80783,0 -25.00128,-9.9498 -25.00128,-22.2234 0,-12.27362 11.19345,-22.22336 25.00128,-22.22336 13.80782,0 25.00127,9.94974 25.00127,22.22336 z"
         style="fill:#729fcf;fill-opacity:1;fill-rule:nonzero;stroke:none" />
      <path
         id="path2844-11"
         d="m 70.19668,999.82666 c 0,12.27364 -11.19345,22.22334 -25.00127,22.22334 -13.80783,0 -25.00128,-9.9497 -25.00128,-22.22334 0,-12.27362 11.19345,-22.22336 25.00128,-22.22336 13.80782,0 25.00127,9.94974 25.00127,22.22336 z"
         style="fill:#729fcf;fill-opacity:1;fill-rule:nonzero;stroke:none" />
      <path
         id="path2844-11-1"
         d="m 72.61576,1000.9598 c 0,12.2736 -11.47328,22.2233 -25.62628,22.2233 -14.153,0 -25.62627,-9.9497 -25.62627,-22.2233 0,-12.27364 11.47327,-22.22338 25.62627,-22.22338 14.153,0 25.62628,9.94974 25.62628,22.22338 z"
         style="fill:#eeeeec;fill-opacity:1;fill-rule:nonzero;stroke:none" />
      <path
         id="path2844-1"
         d="m 40.3972,1019.2721 c 0,9.9026 -8.93215,17.9302 -19.95051,17.9302 -11.01837,0 -19.95051,-8.0276 -19.95051,-17.9302 0,-9.9026 8.93214,-17.9302 19.95051,-17.9302 11.01836,0 19.95051,8.0276 19.95051,17.9302 z"
         style="fill:#729fcf;fill-opacity:1;fill-rule:nonzero;stroke:none" />
      <path
         id="path2844-1-76"
         d="m 40.95786,1019.699 c 0,9.3048 -8.77225,16.8479 -19.59337,16.8479 -10.82112,0 -19.59338,-7.5431 -19.59338,-16.8479 0,-9.3049 8.77226,-16.848 19.59338,-16.848 10.82112,0 19.59337,7.5431 19.59337,16.848 z"
         style="fill:#eeeeec;fill-opacity:1;fill-rule:nonzero;stroke:none" />
      <path
         id="path2844-5-4"
         d="m 126.18719,994.88834 c 0,12.86536 -11.39333,23.29476 -25.44771,23.29476 -14.05438,0 -25.44771,-10.4294 -25.44771,-23.29476 0,-12.86535 11.39333,-23.29478 25.44771,-23.29478 14.05438,0 25.44771,10.42943 25.44771,23.29478 z"
         style="fill:#eeeeec;fill-opacity:1;fill-rule:nonzero;stroke:none" />
      <path
         id="path2844-2"
         d="m 150.50382,1000.3317 c 0,12.2737 -11.19345,22.2234 -25.00127,22.2234 -13.80783,0 -25.00128,-9.9497 -25.00128,-22.2234 0,-12.27358 11.19345,-22.22332 25.00128,-22.22332 13.80782,0 25.00127,9.94974 25.00127,22.22332 z"
         style="fill:#729fcf;fill-opacity:1;fill-rule:nonzero;stroke:none" />
      <path
         id="path2844-2-2"
         d="m 149.75861,1000.2455 c 0,11.5833 -11.2734,20.9733 -25.17984,20.9733 -13.90645,0 -25.17985,-9.39 -25.17985,-20.9733 0,-11.58327 11.2734,-20.97337 25.17985,-20.97337 13.90644,0 25.17984,9.3901 25.17984,20.97337 z"
         style="fill:#eeeeec;fill-opacity:1;fill-rule:nonzero;stroke:none" />
      <path
         id="path2844-1-7"
         d="m 41.91242,1033.6668 c 0,6.5552 -5.201,11.8693 -11.61676,11.8693 -6.41575,0 -11.61675,-5.3141 -11.61675,-11.8693 0,-6.5553 5.201,-11.8693 11.61675,-11.8693 6.41576,0 11.61676,5.314 11.61676,11.8693 z"
         style="fill:#729fcf;fill-opacity:1;fill-rule:nonzero;stroke:none" />
      <path
         id="path2844-1-7-2"
         d="m 42.26694,1032.9241 c 0,6.4566 -5.12105,11.6907 -11.43818,11.6907 -6.31714,0 -11.43819,-5.2341 -11.43819,-11.6907 0,-6.4566 5.12105,-11.6908 11.43819,-11.6908 6.31713,0 11.43818,5.2342 11.43818,11.6908 z"
         style="fill:#eeeeec;fill-opacity:1;fill-rule:nonzero;stroke:none" />
      <path
         id="path2844-4"
         d="m 84.33882,1030.1312 c 0,12.2737 -11.19345,22.2234 -25.00127,22.2234 -13.80783,0 -25.00128,-9.9497 -25.00128,-22.2234 0,-12.2736 11.19345,-22.2233 25.00128,-22.2233 13.80782,0 25.00127,9.9497 25.00127,22.2233 z"
         style="fill:#729fcf;fill-opacity:1;fill-rule:nonzero;stroke:none" />
      <path
         id="path2844-4-2"
         d="m 84.47542,1029.5542 c 0,12.0144 -10.93019,21.7539 -24.41325,21.7539 -13.48308,0 -24.41327,-9.7395 -24.41327,-21.7539 0,-12.0144 10.93019,-21.754 24.41327,-21.754 13.48306,0 24.41325,9.7396 24.41325,21.754 z"
         style="fill:#eeeeec;fill-opacity:1;fill-rule:nonzero;stroke:none" />
      <path
         id="path2844-8"
         d="m 139.39213,1020.0297 c 0,12.2736 -11.19345,22.2234 -25.00127,22.2234 -13.80783,0 -25.00128,-9.9498 -25.00128,-22.2234 0,-12.2736 11.19345,-22.22335 25.00128,-22.22335 13.80782,0 25.00127,9.94975 25.00127,22.22335 z"
         style="fill:#729fcf;fill-opacity:1;fill-rule:nonzero;stroke:none" />
      <path
         id="path2844-8-1"
         d="m 138.06218,1019.7544 c 0,11.8052 -11.21344,21.3752 -25.04592,21.3752 -13.83248,0 -25.04591,-9.57 -25.04591,-21.3752 0,-11.8051 11.21343,-21.37511 25.04591,-21.37511 13.83248,0 25.04592,9.57001 25.04592,21.37511 z"
         style="fill:#eeeeec;fill-opacity:1;fill-rule:nonzero;stroke:none" />
      <path
         id="path2844-1-7-6"
         d="m 90.95831,1047.975 c -7.9716,1.3183 -15.50224,-3.8048 -16.82016,-11.4427 -1.31791,-7.638 4.07596,-14.8984 12.04756,-16.2166 7.9716,-1.3183 15.50224,3.8048 16.82016,11.4428 1.31792,7.6379 -4.07596,14.8983 -12.04756,16.2165 z"
         style="fill:#729fcf;fill-opacity:1;fill-rule:nonzero;stroke:none" />
      <path
         id="path2844-1-7-6-5"
         d="m 91.26841,1046.5778 c -7.83783,1.3182 -15.2421,-3.8049 -16.5379,-11.4428 -1.2958,-7.6379 4.00756,-14.8984 11.84539,-16.2166 7.83783,-1.3183 15.24211,3.8048 16.53791,11.4428 1.29579,7.6379 -4.00757,14.8983 -11.8454,16.2166 z"
         style="fill:#eeeeec;fill-opacity:1;fill-rule:nonzero;stroke:none" />
    </g>
    <g
       style="fill:#550000"
       transform="matrix(4.5772375,0,0,3.5508314,21.843497,56.596815)"
       id="g80">
      <path
         style="fill:#550000"
         d="m 21.172,17.525 c 0.208,-0.175 0.402,-0.367 0.605,-0.547 -0.769,0.755 -1.177,1.075 -0.605,0.547 z m 5.99,2.243 c 0.047,0.734 -0.102,1.527 -0.499,2.16 -0.408,0.662 -1.032,1.116 -1.702,1.397 -0.672,0.282 -1.383,0.408 -2.087,0.455 -1.167,0.076 -2.319,-0.067 -3.445,-0.297 -1.219,3.187 -3.06,5.221 -5.119,5.221 -2.002,0 -3.796,-1.935 -5.014,-4.976 C 8.267,23.96 7.214,24.108 6.145,24.076 5.442,24.053 4.723,23.952 4.044,23.694 3.365,23.437 2.725,23.005 2.293,22.358 1.872,21.74 1.698,20.952 1.72,20.217 1.737,19.473 1.915,18.756 2.165,18.079 2.649,16.785 3.38,15.618 4.211,14.547 4.102,14.421 3.989,14.297 3.883,14.168 c -0.205,0.114 -0.438,0.185 -0.69,0.185 -0.79,0 -1.431,-0.641 -1.431,-1.431 0,-0.456 0.218,-0.858 0.55,-1.12 C 2.264,11.707 2.208,11.618 2.163,11.521 1.866,10.879 1.634,10.195 1.558,9.47 1.48,8.752 1.584,7.975 1.961,7.312 2.331,6.645 2.95,6.143 3.62,5.829 4.291,5.51 5.013,5.347 5.73,5.265 6.875,5.14 8.017,5.209 9.136,5.385 10.354,2.107 12.219,0 14.31,0 c 2.046,0 3.878,2.013 5.096,5.168 1.055,-0.192 2.134,-0.281 3.221,-0.203 0.72,0.058 1.446,0.194 2.13,0.49 0.681,0.293 1.311,0.764 1.714,1.43 0.391,0.637 0.527,1.419 0.474,2.138 -0.049,0.727 -0.259,1.418 -0.532,2.069 -0.484,1.137 -1.178,2.15 -1.941,3.097 0.867,1.043 1.637,2.182 2.168,3.459 0.273,0.667 0.479,1.378 0.522,2.12 z M 19.705,6.019 c 0.458,1.383 0.804,2.948 1.012,4.636 1.314,1.008 2.549,2.119 3.635,3.385 0.003,0.004 0.006,0.008 0.009,0.012 0.709,-0.957 1.324,-1.983 1.735,-3.084 0.232,-0.637 0.396,-1.302 0.407,-1.964 C 26.517,8.343 26.37,7.699 26.006,7.165 25.66,6.653 25.114,6.272 24.514,6.05 23.909,5.822 23.247,5.727 22.586,5.708 21.626,5.681 20.658,5.812 19.705,6.019 Z m -4.34,15.38 c -0.28,0.148 -0.56,0.296 -0.845,0.434 1.367,0.577 2.777,1.047 4.228,1.351 0.077,0.016 0.155,0.026 0.232,0.041 0.743,-2.001 1.238,-4.485 1.383,-7.211 -0.637,-0.144 -1.113,-0.711 -1.113,-1.392 0,-0.689 0.488,-1.264 1.137,-1.399 C 20.368,12.684 20.338,12.151 20.292,11.631 19.33,10.898 18.325,10.215 17.285,9.607 16.297,9.021 15.274,8.497 14.232,8.022 13.205,8.534 12.2,9.093 11.233,9.714 10.222,10.356 9.248,11.07 8.318,11.831 8.251,12.65 8.211,13.49 8.211,14.352 c 0,1.37 0.091,2.69 0.256,3.94 0.119,0.132 0.109,0.154 0.011,0.097 0.256,1.891 0.689,3.603 1.252,5.055 0.174,-0.037 0.348,-0.069 0.52,-0.11 1.44,-0.354 2.832,-0.874 4.178,-1.499 -1.153,-0.512 -2.278,-1.089 -3.361,-1.731 1.097,0.641 2.237,1.212 3.407,1.709 0.294,-0.137 0.583,-0.287 0.873,-0.435 -0.183,-0.24 -0.295,-0.537 -0.295,-0.862 0,-0.791 0.641,-1.432 1.432,-1.432 0.604,0 1.118,0.375 1.329,0.904 0.002,-0.001 0.004,-0.002 0.005,-0.003 -0.002,0.001 -0.004,0.002 -0.005,0.003 0.065,0.164 0.103,0.341 0.103,0.528 0,0.791 -0.641,1.432 -1.432,1.432 -0.456,0 -0.857,-0.217 -1.119,-0.549 z M 7.673,14.352 c 0,-0.698 0.031,-1.379 0.076,-2.051 -0.967,0.828 -1.89,1.712 -2.71,2.68 -0.031,0.037 -0.06,0.076 -0.091,0.113 1.441,1.264 2.368,2.097 2.915,2.606 -0.12,-1.076 -0.19,-2.193 -0.19,-3.348 z M 10.657,8.805 C 11.405,8.331 12.181,7.898 12.97,7.487 11.931,7.073 10.874,6.709 9.791,6.441 9.644,6.406 9.496,6.379 9.349,6.347 8.966,7.56 8.666,8.913 8.472,10.373 9.18,9.823 9.905,9.293 10.657,8.805 Z m 9.475,1.412 C 19.926,8.731 19.606,7.362 19.205,6.139 c -0.198,0.049 -0.398,0.095 -0.594,0.149 -1.072,0.306 -2.115,0.707 -3.139,1.156 0.802,0.382 1.592,0.788 2.356,1.234 0.792,0.475 1.556,0.996 2.304,1.539 z M 9.644,5.475 c 0.116,0.022 0.234,0.038 0.349,0.062 1.45,0.304 2.856,0.765 4.216,1.332 C 15.548,6.254 16.937,5.743 18.376,5.388 18.549,5.346 18.725,5.314 18.899,5.276 17.78,2.379 16.14,0.538 14.31,0.538 c -1.871,0 -3.547,1.923 -4.666,4.937 z M 4.316,14.406 C 4.319,14.402 4.322,14.398 4.325,14.394 5.377,13.076 6.587,11.911 7.881,10.848 8.076,9.177 8.401,7.619 8.841,6.238 7.831,6.046 6.809,5.937 5.797,6.002 5.135,6.046 4.477,6.164 3.882,6.413 3.287,6.659 2.761,7.05 2.425,7.586 2.087,8.12 1.96,8.778 1.997,9.436 c 0.036,0.66 0.221,1.32 0.478,1.948 0.034,0.083 0.079,0.161 0.115,0.243 0.184,-0.086 0.387,-0.137 0.603,-0.137 0.79,0 1.431,0.641 1.431,1.431 0,0.47 -0.23,0.884 -0.58,1.144 0.088,0.117 0.182,0.227 0.272,0.341 z m 4.906,9.145 C 8.602,21.951 8.147,20.051 7.895,17.973 7.807,17.906 7.718,17.837 7.628,17.765 6.639,16.99 5.704,16.145 4.839,15.229 4.048,16.191 3.331,17.221 2.85,18.35 c -0.514,1.202 -0.772,2.615 -0.096,3.732 0.315,0.53 0.852,0.95 1.454,1.208 0.607,0.265 1.28,0.396 1.957,0.45 1.014,0.075 2.042,-0.007 3.057,-0.189 z m 9.699,-0.177 c -0.069,-0.016 -0.138,-0.028 -0.206,-0.044 -1.458,-0.36 -2.87,-0.868 -4.24,-1.473 -1.348,0.653 -2.742,1.21 -4.187,1.622 -0.163,0.045 -0.33,0.083 -0.495,0.124 1.117,2.794 2.725,4.563 4.516,4.563 1.842,0 3.492,-1.863 4.612,-4.792 z m 7.047,-5.433 c -0.521,-1.112 -1.273,-2.116 -2.099,-3.049 -0.652,0.742 -1.356,1.431 -2.092,2.086 0.558,-0.548 1.305,-1.326 2.01,-2.181 -0.043,-0.048 -0.083,-0.098 -0.127,-0.146 -0.854,-0.94 -1.809,-1.791 -2.803,-2.585 0.028,0.38 0.052,0.762 0.066,1.151 0.674,0.116 1.188,0.699 1.188,1.406 0,0.715 -0.526,1.302 -1.21,1.408 -0.148,2.737 -0.653,5.238 -1.412,7.284 1.115,0.181 2.247,0.253 3.358,0.131 0.675,-0.078 1.342,-0.232 1.938,-0.519 0.594,-0.279 1.116,-0.718 1.414,-1.26 0.634,-1.14 0.324,-2.542 -0.231,-3.726 z"
         id="path78" />
    </g>
    <g
       transform="matrix(5.4040514,0,0,4.4354757,20.575364,47.456979)"
       id="g82" />
    <g
       transform="matrix(5.4040514,0,0,4.4354757,20.575364,47.456979)"
       id="g84" />
    <g
       transform="matrix(5.4040514,0,0,4.4354757,20.575364,47.456979)"
       id="g86" />
    <g
       transform="matrix(5.4040514,0,0,4.4354757,20.575364,47.456979)"
       id="g88" />
    <g
       transform="matrix(5.4040514,0,0,4.4354757,20.575364,47.456979)"
       id="g90" />
    <g
       transform="matrix(5.4040514,0,0,4.4354757,20.575364,47.456979)"
       id="g92" />
    <g
       transform="matrix(5.4040514,0,0,4.4354757,20.575364,47.456979)"
       id="g94" />
    <g
       transform="matrix(5.4040514,0,0,4.4354757,20.575364,47.456979)"
       id="g96" />
    <g
       transform="matrix(5.4040514,0,0,4.4354757,20.575364,47.456979)"
       id="g98" />
    <g
       transform="matrix(5.4040514,0,0,4.4354757,20.575364,47.456979)"
       id="g100" />
    <g
       transform="matrix(5.4040514,0,0,4.4354757,20.575364,47.456979)"
       id="g102" />
    <g
       transform="matrix(5.4040514,0,0,4.4354757,20.575364,47.456979)"
       id="g104" />
    <g
       transform="matrix(5.4040514,0,0,4.4354757,20.575364,47.456979)"
       id="g106" />
    <g
       transform="matrix(5.4040514,0,0,4.4354757,20.575364,47.456979)"
       id="g108" />
    <g
       transform="matrix(5.4040514,0,0,4.4354757,20.575364,47.456979)"
       id="g110" />
  </g>
</svg>
